<?xml version="1.0" standalone="no"?>
<!DOCTYPE svg PUBLIC "-//W3C//DTD SVG 20010904//EN"
 "http://www.w3.org/TR/2001/REC-SVG-20010904/DTD/svg10.dtd">
<svg version="1.0" xmlns="http://www.w3.org/2000/svg"
 width="463.000000pt" height="463.000000pt" viewBox="0 0 463.000000 463.000000"
 preserveAspectRatio="xMidYMid meet">
<metadata>
Created by potrace 1.16, written by Peter Selinger 2001-2019
</metadata>
<g transform="translate(0.000000,463.000000) scale(0.100000,-0.100000)"
fill="#000000" stroke="none">
<path d="M0 2315 l0 -2315 2315 0 2315 0 0 2315 0 2315 -2315 0 -2315 0 0
-2315z m2073 879 c5 -6 -24 -51 -108 -167 -12 -17 -16 -17 -74 12 -162 82
-264 103 -491 99 l-175 -3 -3 -277 -2 -278 -185 0 c-169 0 -185 1 -185 18 -1
118 -13 390 -21 475 -5 59 -7 112 -4 117 7 11 1237 14 1248 4z m817 -4 c197
-13 320 -43 456 -110 149 -74 258 -180 329 -320 27 -52 65 -154 65 -172 0 -4
-90 -8 -199 -8 l-199 0 -15 68 c-45 199 -151 359 -284 430 -91 48 -163 62
-317 62 l-136 0 0 -280 0 -280 -187 2 -188 3 -6 245 c-4 135 -10 268 -14 297
-3 29 -4 57 0 63 8 13 486 13 695 0z m-1950 -800 c0 -5 -13 -10 -30 -10 -20 0
-30 -5 -30 -15 0 -9 9 -15 25 -15 14 0 25 -4 25 -10 0 -5 -11 -10 -25 -10 -18
0 -25 -5 -25 -20 0 -11 -4 -20 -10 -20 -5 0 -10 25 -10 55 l0 55 40 0 c22 0
40 -4 40 -10z m181 0 c20 -11 26 -45 9 -55 -7 -4 -7 -13 0 -26 8 -15 7 -19 -4
-19 -7 0 -16 7 -20 15 -3 8 -12 15 -21 15 -8 0 -15 -7 -15 -15 0 -8 -4 -15
-10 -15 -5 0 -10 25 -10 55 0 52 1 55 26 55 14 0 34 -5 45 -10z m214 -32 c9
-24 19 -49 22 -55 3 -7 -2 -13 -11 -13 -9 0 -16 5 -16 10 0 14 -43 13 -58 -2
-23 -23 -23 0 -1 51 12 28 27 51 34 51 7 0 21 -19 30 -42z m165 -3 c0 -38 3
-45 20 -45 17 0 20 7 20 45 0 33 4 45 15 45 11 0 15 -11 15 -43 0 -49 -13 -67
-50 -67 -37 0 -50 18 -50 67 0 32 4 43 15 43 11 0 15 -12 15 -45z m265 39 c27
-11 38 -53 20 -80 -12 -19 -24 -24 -55 -24 l-40 0 0 55 c0 54 0 55 29 55 16 0
37 -3 46 -6z m370 -18 c25 -25 25 -44 2 -73 -5 -7 -27 -13 -48 -13 l-39 0 0
55 c0 55 0 55 30 55 19 0 40 -9 55 -24z m215 14 c0 -5 -11 -10 -25 -10 -16 0
-25 -6 -25 -15 0 -9 9 -15 25 -15 14 0 25 -4 25 -10 0 -5 -11 -10 -25 -10 -14
0 -25 -4 -25 -10 0 -5 11 -10 25 -10 14 0 25 -4 25 -10 0 -5 -18 -10 -40 -10
l-40 0 0 55 0 55 40 0 c22 0 40 -4 40 -10z m200 0 c0 -5 -7 -10 -15 -10 -11 0
-15 -12 -15 -45 0 -33 -4 -45 -15 -45 -11 0 -15 12 -15 45 0 33 -4 45 -15 45
-8 0 -15 5 -15 10 0 6 20 10 45 10 25 0 45 -4 45 -10z m190 0 c0 -5 -11 -10
-25 -10 -16 0 -25 -6 -25 -15 0 -9 9 -15 25 -15 14 0 25 -4 25 -10 0 -5 -11
-10 -25 -10 -14 0 -25 -4 -25 -10 0 -5 11 -10 25 -10 14 0 25 -4 25 -10 0 -5
-18 -10 -40 -10 l-40 0 0 55 0 55 40 0 c22 0 40 -4 40 -10z m206 -6 c18 -15
17 -15 -13 -10 -35 6 -57 -12 -51 -41 2 -12 13 -18 33 -19 47 -2 51 -4 35 -14
-64 -41 -130 41 -71 87 22 17 44 16 67 -3z m204 6 c0 -5 -7 -10 -15 -10 -11 0
-15 -12 -15 -45 0 -33 -4 -45 -15 -45 -11 0 -15 12 -15 45 0 33 -4 45 -15 45
-8 0 -15 5 -15 10 0 6 20 10 45 10 25 0 45 -4 45 -10z m130 -45 c0 -30 -4 -55
-10 -55 -5 0 -10 25 -10 55 0 30 5 55 10 55 6 0 10 -25 10 -55z m205 49 c27
-11 38 -53 20 -80 -17 -27 -72 -33 -93 -12 -20 20 -14 65 10 82 24 17 38 19
63 10z m193 -27 l22 -32 0 33 c0 22 5 32 15 32 12 0 15 -13 15 -55 0 -63 -16
-72 -49 -27 l-20 27 -1 -27 c0 -18 -5 -28 -15 -28 -12 0 -15 13 -15 55 0 64
14 71 48 22z m-2458 -354 c1 -156 17 -533 26 -578 l6 -35 -217 0 -218 0 7 40
c8 54 27 475 25 570 -2 136 -27 120 186 120 l185 0 0 -117z m1368 -225 l2
-338 128 0 c201 0 304 34 410 134 104 97 175 238 207 412 9 49 18 99 21 112
l5 23 195 -2 c161 -1 197 -4 201 -16 10 -26 -35 -175 -81 -268 -91 -185 -255
-320 -471 -388 -161 -50 -238 -57 -643 -57 l-374 0 6 43 c3 23 8 182 11 352 4
171 8 316 10 323 4 10 46 12 187 10 l183 -3 3 -337z m-678 2 l0 -240 -270 0
-270 0 0 240 0 240 270 0 270 0 0 -240z"/>
<path d="M1070 2360 c0 -13 7 -20 18 -20 26 0 34 11 21 27 -17 20 -39 16 -39
-7z"/>
<path d="M1295 2350 c-8 -13 -1 -24 14 -19 6 3 7 10 2 18 -6 10 -10 10 -16 1z"/>
<path d="M1720 2345 c0 -28 4 -35 19 -35 24 0 37 36 21 55 -22 27 -40 17 -40
-20z"/>
<path d="M2080 2345 c0 -28 4 -35 19 -35 24 0 37 36 21 55 -22 27 -40 17 -40
-20z"/>
<path d="M3434 2366 c-15 -12 -17 -18 -8 -33 16 -27 51 -29 59 -3 6 20 -9 50
-24 50 -4 0 -16 -6 -27 -14z"/>
<path d="M1568 1956 c-86 -31 -128 -82 -128 -154 0 -107 99 -183 199 -153 21
6 46 20 56 31 17 19 17 20 2 14 -12 -4 -28 5 -52 30 -18 20 -42 36 -53 36 -23
0 -32 8 -26 25 3 7 13 11 23 8 12 -3 26 5 40 23 25 32 29 69 5 60 -9 -3 -33
-6 -55 -6 -21 0 -39 -5 -39 -11 0 -5 4 -8 8 -5 4 3 9 -11 9 -30 1 -31 -3 -37
-28 -46 -19 -7 -31 -19 -35 -36 -3 -15 -7 -31 -8 -37 -6 -24 -36 58 -36 99 0
36 6 52 31 81 31 35 31 35 47 14 l17 -20 48 25 c58 31 71 33 37 5 l-25 -21 31
6 c16 2 36 6 44 8 7 2 24 -12 37 -31 12 -19 23 -28 23 -20 0 19 -36 59 -82 92
-42 31 -40 31 -90 13z m56 -107 c22 19 20 -2 -3 -30 -16 -19 -23 -22 -37 -13
-24 14 -29 34 -10 34 9 0 16 6 16 13 0 8 3 8 9 -2 8 -12 12 -12 25 -2z"/>
<path d="M1657 1812 c-39 -43 -6 -107 51 -101 26 3 37 -5 82 -59 30 -36 60
-62 71 -62 37 0 19 37 -43 90 -54 45 -62 56 -59 82 6 58 -64 92 -102 50z m81
-4 c7 -7 12 -24 12 -38 0 -34 -17 -50 -52 -50 -37 0 -57 38 -40 75 13 27 58
35 80 13z"/>
<path d="M1727 1771 c-4 -17 -3 -21 5 -13 5 5 8 16 6 23 -3 8 -7 3 -11 -10z"/>
</g>
</svg>
